<svg xmlns="http://www.w3.org/2000/svg" width="24" height="16" viewBox="0 0 24 16">
  <!-- stripes -->
  <rect width="24" height="16" fill="#ffffff"/>
  <g fill="#b22234">
    <rect y="0" width="24" height="1.23"/>
    <rect y="2.46" width="24" height="1.23"/>
    <rect y="4.92" width="24" height="1.23"/>
    <rect y="7.38" width="24" height="1.23"/>
    <rect y="9.84" width="24" height="1.23"/>
    <rect y="12.3" width="24" height="1.23"/>
    <rect y="14.76" width="24" height="1.24"/>
  </g>
  <!-- canton -->
  <rect width="10.5" height="8.6" fill="#3c3b6e"/>
  <!-- simplified stars -->
  <g fill="#ffffff">
    <circle cx="1.5" cy="1.4" r="0.35"/>
    <circle cx="3.1" cy="1.4" r="0.35"/>
    <circle cx="4.7" cy="1.4" r="0.35"/>
    <circle cx="6.3" cy="1.4" r="0.35"/>
    <circle cx="7.9" cy="1.4" r="0.35"/>

    <circle cx="2.3" cy="2.6" r="0.35"/>
    <circle cx="3.9" cy="2.6" r="0.35"/>
    <circle cx="5.5" cy="2.6" r="0.35"/>
    <circle cx="7.1" cy="2.6" r="0.35"/>

    <circle cx="1.5" cy="3.8" r="0.35"/>
    <circle cx="3.1" cy="3.8" r="0.35"/>
    <circle cx="4.7" cy="3.8" r="0.35"/>
    <circle cx="6.3" cy="3.8" r="0.35"/>
    <circle cx="7.9" cy="3.8" r="0.35"/>

    <circle cx="2.3" cy="5.0" r="0.35"/>
    <circle cx="3.9" cy="5.0" r="0.35"/>
    <circle cx="5.5" cy="5.0" r="0.35"/>
    <circle cx="7.1" cy="5.0" r="0.35"/>

    <circle cx="1.5" cy="6.2" r="0.35"/>
    <circle cx="3.1" cy="6.2" r="0.35"/>
    <circle cx="4.7" cy="6.2" r="0.35"/>
    <circle cx="6.3" cy="6.2" r="0.35"/>
    <circle cx="7.9" cy="6.2" r="0.35"/>
  </g>
</svg>

